<?xml version="1.0" encoding="UTF-8"?>
<svg id="Layer_1" data-name="Layer 1" xmlns="http://www.w3.org/2000/svg" viewBox="0 0 239.74 239.74">
  <defs>
    <style>
      .cls-1 {
        fill: #fff;
        stroke: #231f20;
        stroke-miterlimit: 10;
        stroke-width: 3px;
      }
    </style>
  </defs>
  <path class="cls-1" d="m223.24,104.87h-22.64c-6.17-33.28-32.46-59.56-65.73-65.73v-22.64c0-8.28-6.72-15-15-15s-15,6.72-15,15v22.64c-33.28,6.17-59.56,32.46-65.73,65.73h-22.64c-8.28,0-15,6.72-15,15s6.72,15,15,15h22.64c6.17,33.28,32.46,59.56,65.73,65.73v22.64c0,8.28,6.72,15,15,15s15-6.72,15-15v-22.64c33.28-6.17,59.56-32.46,65.73-65.73h22.64c8.28,0,15-6.72,15-15s-6.72-15-15-15Zm-103.37,67.13c-28.74,0-52.13-23.39-52.13-52.13s23.39-52.13,52.13-52.13,52.13,23.39,52.13,52.13-23.39,52.13-52.13,52.13Z"/>
</svg>